<svg width="156" height="48" viewBox="0 0 156 48" fill="none" xmlns="http://www.w3.org/2000/svg" role="img" aria-labelledby="title">
  <title id="title">InfraQ</title>
  <rect x="2" y="6" width="36" height="36" rx="8" fill="#0F172A"/>
  <path d="M11 30.5V17.5H15V30.5H11Z" fill="#FFFFFF"/>
  <path d="M18 30.5V17.5H22.1L29 24.5V17.5H33V30.5H29L22 23.3V30.5H18Z" fill="#FFFFFF"/>
  <path d="M52 34V15H56.2V34H52Z" fill="#0F172A"/>
  <path d="M60.1 34V20.1H64V22.1C64.9 20.7 66.4 19.8 68.5 19.8C71.8 19.8 73.8 22 73.8 25.7V34H69.8V26.3C69.8 24.3 68.9 23.3 67.1 23.3C65.3 23.3 64.1 24.6 64.1 26.8V34H60.1Z" fill="#0F172A"/>
  <path d="M78.4 34V23.3H76.2V20.1H78.4V18.9C78.4 15.7 80.3 13.9 83.6 13.9C84.6 13.9 85.6 14.1 86.4 14.4V17.6C85.8 17.4 85.2 17.3 84.5 17.3C83.1 17.3 82.4 17.9 82.4 19.2V20.1H86.1V23.3H82.4V34H78.4Z" fill="#0F172A"/>
  <path d="M88.8 34V20.1H92.7V22.6C93.5 20.9 94.9 19.9 97 19.9C97.4 19.9 97.8 19.9 98.1 20V23.8C97.6 23.7 97.1 23.7 96.6 23.7C94.2 23.7 92.8 25.1 92.8 27.6V34H88.8Z" fill="#0F172A"/>
  <path d="M106.1 34.3C102 34.3 99.1 31.4 99.1 27.1C99.1 22.8 102 19.8 106.1 19.8C108.1 19.8 109.7 20.6 110.7 21.9V20.1H114.7V34H110.7V32.2C109.7 33.5 108.1 34.3 106.1 34.3ZM107 30.9C109.2 30.9 110.8 29.3 110.8 27.1C110.8 24.8 109.2 23.2 107 23.2C104.8 23.2 103.2 24.8 103.2 27.1C103.2 29.3 104.8 30.9 107 30.9Z" fill="#0F172A"/>
  <path d="M127.1 34.3C121.3 34.3 117.2 30.1 117.2 24.5C117.2 18.9 121.3 14.7 127.1 14.7C132.9 14.7 137 18.9 137 24.5C137 27.4 135.9 29.9 134 31.7L137.7 35.5L134.8 38.3L130.8 34.3C129.7 34.3 128.5 34.3 127.1 34.3ZM127.1 30.5C130.4 30.5 132.7 28 132.7 24.5C132.7 21 130.4 18.5 127.1 18.5C123.8 18.5 121.5 21 121.5 24.5C121.5 28 123.8 30.5 127.1 30.5Z" fill="#0F172A"/>
</svg>
